<?xml version="1.0" encoding="UTF-8"?>
<svg id="Ebene_2" data-name="Ebene 2" xmlns="http://www.w3.org/2000/svg" viewBox="0 0 636.39 425.97">
  <g id="Ebene_1-2" data-name="Ebene 1">
    <g>
      <path d="M198.71,13.54l-4.5-9.71c-.77-1.73-1.96-3.74-3.53-3.83-3.9-.22-4.05,11.64-12.34,16.92-5.45,3.48-8.94.61-18.91,3.39-6.6,1.84-11.5,4.9-14.51,7.08-11.53-3.81-18.42-2.2-22.65.16-7.92,4.43-8.12,12.41-15.36,14.22-8.72,2.18-16.1-7.47-18.32-5.36-2.16,2.05,2.04,13.97,10.83,17.28,8.94,3.38,18.89-3.55,20.76-4.86,7.22-5.04,9.93-11.62,12.71-10.73,1.83.59,2.37,4.01,2.55,6.71l5.74,26.5,8.32-1.8c-2.34-10.74-.24-20.69,6.08-26.33.77-.68,6.54-5.82,12.32-4.23,3.71,1.02,6.87,4.66,8.6,10l10.99-.66c-2.62-8.49-1.78-12.38.17-14.14,3.93-3.55,12.31,1.6,15.57-1.97,2.97-3.24-.46-11.35-4.52-18.64ZM392.98,422.49l-1.96-4.83c-.16-.11-.33-.2-.51-.3l-3.1-.99-38.68-5.25c-53.2-7.21-104.19-10.65-158.84-7.6,56.35,14.97,110.66,13.69,166.3,20.54,12.82.94,25.93,1.18,36.88-1.17-.03-.11-.06-.25-.09-.4Z" fill="#334adc"/>
      <path d="M634.77,258.46c-3.78-14.1-6.54-38.34-6.24-82.05-.35-4.55,6.53-14.32,4.01-17.44-3.74-4.6-9.49-4.71-16.7-5.65-45.86-5.99-89.13-16.33-134.03-27.34l-10.51-20.78c-9.61-18.99-28.39-30.08-45.18-44.43-16.85-14.4-64.33-56.4-82.42-55.44-2.14.11-2.49,6.26-1.2,9.13.12.25.25.48.39.68.11.15.23.28.35.39,20.54,18.05,44.55,40.83,63.55,61.16l41.52,44.43-116.56,57.6-107.01,56.49c-20.43-18.68-37.82-39.17-54.57-60.61l-53.24-68.16L327.21,30.22c6.13-2.22,10.4-6.89,11.23-11.85.13-.81-.14-1.79-.7-2.84-.13-.23-.27-.47-.42-.71-2.55-3.99-8.74-8.46-12.1-7.41-46.6,14.53-88.5,32.81-133.63,51.48-1.85-4.16-3.18-7.66-4.1-10.6l-10.99.66c1.37,4.22,1.85,9.51,1,15.41-8.85,3.44-17.69,6.88-26.54,10.33-.6-1.74-1.09-3.47-1.46-5.18l-8.32,1.8,1.54,7.14-53.3,25.4C54.78,167.52,36.31,216.06.7,282.35c-1.91,3.56.32,16.44,4.09,14.78,5.78-2.55,11.72-6.2,20.29-11.01l-3.84,109.71c-.49,14.03,6.83,29.5,24.89,28.35l118.2-7.55c9.5-.6,12.12-15.34,8.21-22.6-3.35-6.2-12.92-9.7-21.09-9.55-.78-.69-2.21-2.36-2.97-1.91l-4.24,2.58-16.02.11c-8.94,3.48-19.41,3.29-28.95,3.51l-46.31,1.08-4.51-60.39-7.76-73.83,12.79-26.88c3.19-6.71,8.1-12.47,12.11-18.2,5.29-7.57,6.24-21.45,14.41-27.17l2.33-5.21c3.52-13.09,9.95-24.36,19.62-38.58,38.55,45.45,53.91,76.39,95.07,114.49.15,43.04,1.49,82.15,7.32,123.04,1.02,7.17,10.71,13.77,15.97,13.17,5.16-.58,11.84-11.75,11.01-18.38l-13.52-108.01c17.16-3.93,32.68,6.91,38.79,22.65l18.8,48.46c8.52,21.94,26.13,32.84,50.03,31.92,31.76-1.23,62.97,17.74,61.99,49.44l3.1.99c.18.1.35.19.51.3l1.96,4.83c.03.15.06.29.09.4,3.44.92,10.23,2.46,13.99,3.05,3.96.61,7.54-9.78,7.37-14.22,1.02-20.09.2-30.21-1.18-35.5-.22-.84-1.58-5.86.42-11.01.29-.76,1.56-4.01,3.11-3.95,1.72.06,2.87,4.2,3.82,7.74.79,2.93,1.7,7.26,1.95,12.78l.55,11.94c.33,1.47.71,3,1.15,4.58.45,1.62.93,3.15,1.42,4.6.3.73,1.39,3.16,3.95,4.24.73.31,2.07.87,3.56.33,1.21-.44,1.88-1.37,2.13-1.77l-.54-5.19c-1.16-14.7-1.6-24.13-1.6-30.04,0-6.78.58-8.91,1.31-9.02,1.36-.21,3.57,6.51,4.14,8.25,2.07,6.29,1.9,11.75,1.57,14.89.13,1.08.46,2.85,1.48,4.78.9,1.69,2.11,3.95,3.9,3.94,1.82-.01,3.07-2.35,3.25-2.68-.44-14.27-1.28-21.36-2.01-25.2-.73-3.84-.66-7.79-1.05-11.67,0,0-.1-1.01.19-3.81.15-1.47.32-2.17.87-2.54.71-.48,1.7-.16,1.91-.09,2.59.84,2.62,9.25,2.68,13.38.29,22.38,2.55,25.75,4.62,26.97,2.81,1.66,5.51.99,5.51.99s1.66-.41,3.1-1.83c3.69-3.64.53-101.77-.33-127.23,8.38-5.15,16.44-9.05,27.35-12.01l-2.19,94.45c-1.22,11.75,2.3,20.84,8.21,22.95.34.12,4.63,1.58,7.72-.75,4.31-3.25,3.3-11.63,1.94-39.25-.14-2.76-.33-8.2,3.11-11.29,1.45-1.3,3.96-2.56,5.64-1.7,2.44,1.25,1.9,6.3,1.7,11.58-.2,5.23-.15,12.81,1.12,22.31l.13,4.87c.47.65,1.33,1.59,2.62,1.93,2.34.62,5.25-.92,6.86-3.98.19-1.51.37-3.01.56-4.52-.24-.98-.47-1.95-.67-2.9-.09-.42-.18-.83-.26-1.23-1.28-6.1-1.88-11.33-2.17-15.35-.76-10.32-1.29-18.89,3.38-21.74,1.48-.9,4.13-1.64,6.22-.57,7.45,3.84.71,27.17,2.37,36.49.07.37.15.71.24,1.03.38,1.28.98,2.19,1.9,2.58,1.9.81,6-1.97,14.2-7.53,3.86-2.61,6.94-4.99,9.09-6.72l53.62-36.69c3.77,6.24,8.45,9.81,11.88,8.87,2.79-.76,4.28-4.38,5.47-9.32,4.35-18.01.43-32.63.43-32.63ZM386.42,355.16c-26.04-15.02-48.26-17.79-77.34-18.83l-28.84-60.8c44.82,7.57,64,9.63,109.22,32.84-.06,15.25-1.29,32.58-3.04,46.79ZM448.41,339.55l-7.12,3.41c-4.71,2.26-11.64,3.56-17.77,3.56-4.31,0-8.23-.64-10.72-2.03l-6.46-54.6,43.92-22.72c.7,26.76-.58,48.82-1.85,72.38ZM533.05,284.78l-22.82,11.85-4.34-57.95c6.14-6.96,18.13-12.98,29.16-16.27l-2,62.37ZM450.41,252.23l-49.2,29.77c-33.93-13-67.06-19-102.13-22.58-18.75-1.91-36.61-3.09-54.08-13.79l161.83-76.36,71.27-30.92,98.01,33.7c-42.65,29.9-82.91,54.29-125.7,80.18ZM552.03,321.78l-2.78-109.1c17.88-11.45,38.48-22.23,60.51-32.68l4.18,92.33-61.91,49.45Z" fill="#334adc"/>
      <path d="M100.2,272.63c-3.76-9.51-25.84-4.62-23.91,6.42.86,5.43,7.97,9.31,13.48,7.83,5.91-1.34,11.81-7.94,10.48-14.11l-.04-.14Z" fill="#334adc"/>
      <path d="M65.56,303.89c.86,5.43,7.97,9.31,13.48,7.83,5.91-1.34,11.81-7.94,10.48-14.11l-.04-.14c-3.76-9.51-25.84-4.62-23.91,6.42Z" fill="#334adc"/>
      <path d="M97.75,301.63c.86,5.43,7.97,9.31,13.48,7.83,5.91-1.34,11.81-7.94,10.48-14.11l-.04-.14c-3.76-9.51-25.84-4.62-23.91,6.42Z" fill="#334adc"/>
      <path d="M144.54,306.64c5.91-1.34,11.81-7.94,10.48-14.11l-.04-.14c-3.76-9.51-25.84-4.62-23.91,6.42.86,5.43,7.97,9.31,13.48,7.83Z" fill="#334adc"/>
      <path d="M95.41,334.31c5.91-1.34,11.81-7.94,10.48-14.11l-.04-.14c-3.76-9.51-25.84-4.62-23.91,6.42.86,5.43,7.97,9.31,13.48,7.83Z" fill="#334adc"/>
      <path d="M127.6,333.18c5.91-1.34,11.81-7.94,10.48-14.11l-.04-.14c-3.76-9.51-25.84-4.62-23.91,6.42.86,5.43,7.97,9.31,13.48,7.83Z" fill="#334adc"/>
      <path d="M112.92,358.03c5.91-1.34,11.81-7.94,10.48-14.11l-.04-.14c-3.76-9.51-25.84-4.62-23.91,6.42.86,5.43,7.97,9.31,13.48,7.83Z" fill="#334adc"/>
      <path d="M167.8,260.21c-8.92-.38-11.39-4.14-19.72-3.8-2.31.09-9.89.7-16.28,6.17-6.11,5.23-10.47,14.33-7.96,17.22,2.49,2.87,8.98-3.55,21.82-2.93,9.71.47,10.96,4.34,18.28,2.96,9.68-1.83,14.96-10.01,15.34-10.6,2.99-4.79,3.47-9.48,3.54-11.79-3.46,1.42-8.7,3.04-15.01,2.77Z" fill="#334adc"/>
      <path d="M113.87,273.77c4.08-.61,1.64-10.91,9.6-17.51,1.44-1.19,4.91-3.24,11.86-7.34,3.77-2.23,4.4-2.5,5.08-3.39,1.47-1.91,3.42-6.94-4.52-20.89-5.91,5.51-11.11,9.38-14.68,11.86-8.36,5.79-12.03,6.84-14.68,11.86-3.7,7-1.45,14.26-1.13,15.25,1.42,4.34,5.19,10.66,8.47,10.16Z" fill="#334adc"/>
    </g>
  </g>
</svg>